<?xml version="1.0" encoding="UTF-8" standalone="no"?>
<!-- Created with Inkscape (http://www.inkscape.org/) -->

<svg
   xmlns:dc="http://purl.org/dc/elements/1.1/"
   xmlns:cc="http://creativecommons.org/ns#"
   xmlns:rdf="http://www.w3.org/1999/02/22-rdf-syntax-ns#"
   xmlns:svg="http://www.w3.org/2000/svg"
   xmlns="http://www.w3.org/2000/svg"
   xmlns:sodipodi="http://sodipodi.sourceforge.net/DTD/sodipodi-0.dtd"
   xmlns:inkscape="http://www.inkscape.org/namespaces/inkscape"
   width="685"
   height="77"
   id="svg2"
   version="1.1"
   inkscape:version="0.48.2 r9819"
   sodipodi:docname="LegendS1.svg"
   inkscape:export-filename="E:\Dropbox\Link to JAMK\HTML5 Web application programming\Final project\HTML5-HeroCreator\img\titles\LegendS1.png"
   inkscape:export-xdpi="150"
   inkscape:export-ydpi="150">
  <defs
     id="defs4" />
  <sodipodi:namedview
     id="base"
     pagecolor="#ffffff"
     bordercolor="#666666"
     borderopacity="1.0"
     inkscape:pageopacity="0.0"
     inkscape:pageshadow="2"
     inkscape:zoom="1.4"
     inkscape:cx="359.06309"
     inkscape:cy="31.881456"
     inkscape:document-units="px"
     inkscape:current-layer="layer1"
     showgrid="false"
     inkscape:window-width="1366"
     inkscape:window-height="705"
     inkscape:window-x="-8"
     inkscape:window-y="-8"
     inkscape:window-maximized="1"
     fit-margin-top="0"
     fit-margin-left="0"
     fit-margin-right="0"
     fit-margin-bottom="0" />
  <metadata
     id="metadata7">
    <rdf:RDF>
      <cc:Work
         rdf:about="">
        <dc:format>image/svg+xml</dc:format>
        <dc:type
           rdf:resource="http://purl.org/dc/dcmitype/StillImage" />
        <dc:title></dc:title>
      </cc:Work>
    </rdf:RDF>
  </metadata>
  <g
     inkscape:label="Layer 1"
     inkscape:groupmode="layer"
     id="layer1"
     transform="translate(-26.071424,-25.290754)">
    <path
       style="fill:#000000"
       d="m 36.071424,94.485392 0,-7.15399 4.126299,-2.105081 c 8.291912,-4.230218 12.815583,-11.69861 12.851739,-21.217686 0.01208,-3.180165 -0.675845,-7.455165 -1.528719,-9.5 -1.949577,-4.674263 -6.830405,-9.816467 -11.699319,-12.325834 l -3.75,-1.932695 0,-7.15399 0,-7.15399 2.25,2.096167 c 1.2375,1.152892 5.749214,3.481333 10.026031,5.174314 l 7.776032,3.078147 312.836423,0 312.83643,0 7.36065,-3.035287 c 4.04836,-1.669409 8.38525,-3.99785 9.63754,-5.174314 l 2.27689,-2.139027 0,7.473425 0,7.473426 -3.45891,1.250758 c -4.39675,1.589885 -10.83796,8.860811 -12.36507,13.957862 -2.53763,8.469839 -0.88383,16.837965 4.59198,23.235225 1.89579,2.214803 5.19854,4.920539 7.33945,6.012747 l 3.89255,1.985833 0,7.15399 0,7.153988 -2.25,-2.062894 c -1.2375,-1.134593 -5.61648,-3.463034 -9.73106,-5.174314 l -7.48107,-3.111418 -312.83845,0 -312.838451,0 -7.680483,3.144851 c -4.224265,1.729669 -8.692982,4.05811 -9.930482,5.174314 l -2.25,2.029461 0,-7.153988 z m -9,-7.072193 c 0,-9.829576 0.0651,-10.122553 2.25,-10.126183 5.739447,-0.0095 11.75,-6.913365 11.75,-13.496262 0,-6.582897 -6.010553,-13.486727 -11.75,-13.496262 -2.184902,-0.0036 -2.25,-0.296607 -2.25,-10.126183 0,-8.884346 0.183468,-9.970179 1.5,-8.877555 1.017725,0.844637 1.5,3.109074 1.5,7.042989 0,5.660374 0.07303,5.81414 3.074279,6.473326 6.994764,1.536307 13.859868,10.936164 13.903759,19.037341 0.03351,6.18522 -4.275946,13.950583 -9.412569,16.960845 -2.332651,1.367024 -4.989148,2.485499 -5.903326,2.485499 -1.360994,0 -1.662143,1.064903 -1.662143,5.877555 0,4.004543 -0.478008,6.274267 -1.5,7.122445 -1.316532,1.092624 -1.5,0.0068 -1.5,-8.877555 z m 681.240546,7.891124 c -0.6823,-1.092537 -1.24055,-4.186287 -1.24055,-6.875 0,-4.601241 -0.17151,-4.922871 -2.91807,-5.472182 -3.45254,-0.69051 -9.60052,-5.834755 -11.60441,-9.709858 -2.2065,-4.26691 -2.7811,-10.112504 -1.4743,-14.998541 1.42018,-5.309931 8.24599,-12.41454 12.91198,-13.439362 2.95564,-0.649168 3.08613,-0.894029 3.1166,-5.848081 0.0182,-2.951681 0.66186,-6.003552 1.5,-7.111675 1.32187,-1.747663 1.4682,-0.925414 1.4682,8.25 0,10.165513 -0.006,10.19113 -2.4652,10.19113 -3.45736,0 -9.29428,5.465172 -10.64232,9.964519 -0.85306,2.84726 -0.84105,4.661293 0.0487,7.357271 1.44467,4.377364 7.24689,9.67821 10.59362,9.67821 2.45592,0 2.4652,0.03764 2.4652,10 0,5.5 -0.11675,10 -0.25945,10 -0.1427,0 -0.8177,-0.893894 -1.5,-1.986431 z"
       id="path3168"
       inkscape:connector-curvature="0"
       inkscape:export-xdpi="150"
       inkscape:export-ydpi="150" />
  </g>
</svg>
