<?xml version="1.0" encoding="UTF-8" standalone="no"?>
<!-- Created with Inkscape (http://www.inkscape.org/) -->

<svg
   xmlns:dc="http://purl.org/dc/elements/1.1/"
   xmlns:cc="http://creativecommons.org/ns#"
   xmlns:rdf="http://www.w3.org/1999/02/22-rdf-syntax-ns#"
   xmlns:svg="http://www.w3.org/2000/svg"
   xmlns="http://www.w3.org/2000/svg"
   xmlns:sodipodi="http://sodipodi.sourceforge.net/DTD/sodipodi-0.dtd"
   xmlns:inkscape="http://www.inkscape.org/namespaces/inkscape"
   width="30.991358"
   height="75.526413"
   id="svg3009"
   version="1.1"
   inkscape:version="0.48.2 r9819"
   sodipodi:docname="LegendSRight.svg">
  <defs
     id="defs3011" />
  <sodipodi:namedview
     id="base"
     pagecolor="#ffffff"
     bordercolor="#666666"
     borderopacity="1.0"
     inkscape:pageopacity="0.0"
     inkscape:pageshadow="2"
     inkscape:zoom="7.9195959"
     inkscape:cx="-2.8533422"
     inkscape:cy="65.853683"
     inkscape:document-units="px"
     inkscape:current-layer="layer1"
     showgrid="false"
     fit-margin-top="0"
     fit-margin-left="0"
     fit-margin-right="0"
     fit-margin-bottom="0"
     inkscape:window-width="1366"
     inkscape:window-height="705"
     inkscape:window-x="-8"
     inkscape:window-y="-8"
     inkscape:window-maximized="1" />
  <metadata
     id="metadata3014">
    <rdf:RDF>
      <cc:Work
         rdf:about="">
        <dc:format>image/svg+xml</dc:format>
        <dc:type
           rdf:resource="http://purl.org/dc/dcmitype/StillImage" />
        <dc:title></dc:title>
      </cc:Work>
    </rdf:RDF>
  </metadata>
  <g
     inkscape:label="Layer 1"
     inkscape:groupmode="layer"
     id="layer1"
     transform="translate(-14.285717,-10.39868)">
    <path
       style="fill:#000000"
       d="m 23.285717,78.771106 0,-7.153991 4.126299,-2.105081 c 8.291912,-4.230218 12.815583,-11.69861 12.851739,-21.217686 0.0365,-9.609691 -4.705151,-17.433263 -13.228038,-21.825833 l -3.75,-1.932695 0,-7.06857 0,-7.06857 2.800496,2.338894 c 1.540272,1.286391 6.488327,3.688893 10.995678,5.338893 l 8.195183,3 -0.021,27 -0.021,27.000001 -8.724677,3.361032 c -4.798575,1.848568 -9.73718,4.289511 -10.97468,5.424315 l -2.25,2.06328 0,-7.153989 z m -9,-7.072193 c 0,-9.829576 0.0651,-10.122553 2.25,-10.126184 5.739447,-0.0095 11.75,-6.913364 11.75,-13.496262 0,-6.582896 -6.010553,-13.486726 -11.75,-13.496262 -2.184902,-0.0036 -2.25,-0.296607 -2.25,-10.126183 0,-8.884345 0.183468,-9.970179 1.5,-8.877554 1.017725,0.844637 1.5,3.109073 1.5,7.042988 0,5.660374 0.07303,5.81414 3.074279,6.473326 6.994764,1.536307 13.859868,10.936164 13.903759,19.037342 0.03351,6.18522 -4.275946,13.950583 -9.412569,16.960845 -2.332651,1.367024 -4.989148,2.485499 -5.903327,2.485499 -1.360993,0 -1.662142,1.064902 -1.662142,5.877555 0,4.004542 -0.478008,6.274266 -1.5,7.122445 -1.316532,1.092624 -1.5,0.0068 -1.5,-8.877555 z"
       id="path3041"
       inkscape:connector-curvature="0" />
  </g>
</svg>
