<?xml version="1.0" encoding="utf-8"?>
<!-- Generator: Adobe Illustrator 16.0.0, SVG Export Plug-In . SVG Version: 6.00 Build 0)  -->
<!DOCTYPE svg PUBLIC "-//W3C//DTD SVG 1.1//EN" "http://www.w3.org/Graphics/SVG/1.1/DTD/svg11.dtd">
<svg version="1.1" id="Layer_1" xmlns="http://www.w3.org/2000/svg" xmlns:xlink="http://www.w3.org/1999/xlink" x="0px" y="0px"
	 width="2px" height="22px" viewBox="0 0 2 22" enable-background="new 0 0 2 22" xml:space="preserve">
<path fill="#010101" d="M103.636,10.98c0,3.145,1.468,5.8,3.483,6.668v3.109h-0.818l-3.086-1.799h-232.431l-3.087,1.799h-0.818
	v-3.109c2.016-0.868,3.483-3.523,3.483-6.668s-1.467-5.8-3.483-6.667V1.242V1.203v-1.16l0.818,1.16l3.087,1.798h232.431l3.086-1.798
	l0.818-1.16v1.16v0.039v3.071C105.104,5.18,103.636,7.835,103.636,10.98 M106.173,10.993c0.066,0.002,0.135,0.004,0.2,0.007h150.444
	l-4.222,1.551c0,0-1.688-0.775-4.854-0.775H109.25c0.675,0.484,1.112,1.205,1.63,2.205c1.103,2.125,2.256-0.574,3.179-0.574
	c0.924,0,2.1,0.574,2.1,0.574l-5.541,3.001c-0.64-2.95-1.801-4.443-2.848-5.206h-0.675c0,0-0.288-0.253-0.899-0.47
	c0.117,2.078,1.332,3.721,2.825,3.721v1.798v3.934l-0.635-0.937v-3.073c-1.957-0.433-3.46-2.824-3.478-5.717
	c-0.206-0.019-0.425-0.031-0.663-0.031h0.661c0-0.007-0.001-0.013-0.001-0.02h-0.66c0.238,0,0.457-0.012,0.662-0.031
	c0.011-2.901,1.518-5.301,3.479-5.735V2.178l0.635-0.936v3.894v1.799v0.038h-0.266c-1.374,0.185-2.457,1.745-2.563,3.703
	c0.613-0.217,0.902-0.471,0.902-0.471h0.648c1.052-0.757,2.229-2.251,2.874-5.226l5.541,3.001c0,0-1.176,0.574-2.1,0.574
	c-0.923,0-2.076-2.698-3.179-0.574c-0.525,1.013-0.966,1.74-1.656,2.225h138.518c3.166,0,4.854-0.775,4.854-0.775l4.222,1.55
	H106.172C106.172,10.985,106.173,10.988,106.173,10.993 M106.301,20.796l0.818-0.038v1.199L106.301,20.796z M-130.907,10.949
	c0.205,0.019,0.424,0.031,0.661,0.031h-0.66c0,0.007-0.001,0.013-0.001,0.02h0.661c-0.238,0-0.457,0.012-0.663,0.031
	c-0.018,2.893-1.522,5.284-3.478,5.717v3.073l-0.634,0.937v-3.934v-1.798c1.492,0,2.708-1.644,2.826-3.721
	c-0.613,0.217-0.9,0.47-0.9,0.47h-0.676c-1.045,0.763-2.208,2.256-2.847,5.206l-5.54-3.001c0,0,1.175-0.574,2.098-0.574
	c0.924,0,2.077,2.699,3.179,0.574c0.519-1,0.956-1.721,1.63-2.205h-138.491c-3.166,0-4.855,0.775-4.855,0.775L-282.818,11h150.445
	c0.064-0.003,0.133-0.005,0.2-0.007c0-0.005,0.001-0.008,0.001-0.013h-150.646l4.221-1.55c0,0,1.689,0.775,4.855,0.775h138.518
	c-0.691-0.485-1.131-1.212-1.657-2.225c-1.102-2.124-2.255,0.574-3.179,0.574c-0.923,0-2.098-0.574-2.098-0.574l5.54-3.001
	c0.644,2.975,1.822,4.469,2.874,5.226h0.649c0,0,0.289,0.254,0.903,0.471c-0.106-1.958-1.191-3.518-2.563-3.703h-0.266V6.935V5.136
	V1.242l0.634,0.936v3.036C-132.427,5.648-130.918,8.048-130.907,10.949 M-132.303,20.796l-0.818-0.038v1.199L-132.303,20.796z"/>
<rect id="_x3C_Slice_x3E_" x="-290" y="0.043" fill="none" width="547" height="21.957"/>
</svg>
