<?xml version="1.0" encoding="utf-8"?>
<!-- Generator: Adobe Illustrator 16.0.0, SVG Export Plug-In . SVG Version: 6.00 Build 0)  -->
<!DOCTYPE svg PUBLIC "-//W3C//DTD SVG 1.1//EN" "http://www.w3.org/Graphics/SVG/1.1/DTD/svg11.dtd">
<svg version="1.1" id="Layer_1" xmlns="http://www.w3.org/2000/svg" xmlns:xlink="http://www.w3.org/1999/xlink" x="0px" y="0px"
	 width="50px" height="176.738px" viewBox="0 0 50 176.738" enable-background="new 0 0 50 176.738" xml:space="preserve">
<polygon fill="#010101" points="0,48.588 0,87.874 49.997,87.874 49.997,48.588 24.998,56.448 "/>
<polygon fill="#010101" points="0,94.163 0,169.326 24.998,176.738 49.997,169.326 49.997,94.163 "/>
<polygon fill="#FFFFFF" points="3.24,167.964 3.24,102.061 46.758,102.061 46.758,167.964 24.998,173.827 "/>
<polygon fill="#010101" points="0,0 0,46.747 24.998,54.607 49.998,46.747 49.998,0 "/>
<polygon fill="#FFFFFF" points="3.241,80.333 3.241,54.088 24.999,61.482 46.759,54.088 46.759,80.333 "/>
<path fill="#FFFFFF" d="M41.014,26.333c0.135,0,0.246-0.039,0.334-0.117c0.086-0.076,0.16-0.164,0.217-0.26
	c0.059-0.098,0.111-0.185,0.16-0.263c0.049-0.077,0.102-0.116,0.16-0.116c0.096,0,0.145,0.088,0.145,0.262
	c0,0.097-0.033,0.324-0.1,0.682c-0.07,0.359-0.277,0.857-0.625,1.496c-0.234,0.445-0.553,0.837-0.959,1.176
	s-0.832,0.691-1.277,1.059c-0.387,0.33-0.703,0.697-0.943,1.104c-0.242,0.407-0.363,0.735-0.363,0.987s0.145,0.377,0.436,0.377
	c0.135,0,0.266-0.028,0.393-0.086c0.125-0.059,0.246-0.088,0.361-0.088c0.117,0,0.176,0.068,0.176,0.203
	c0,0.077-0.02,0.137-0.059,0.174c-0.311,0.427-0.672,0.761-1.09,1.002c-0.416,0.242-0.846,0.465-1.291,0.668
	s-0.895,0.412-1.35,0.625s-0.867,0.504-1.234,0.871c0,0.02-0.035,0.082-0.102,0.188c-0.068,0.106-0.102,0.218-0.102,0.334
	c0,0.058,0.01,0.097,0.029,0.115c0.076,0.155,0.178,0.243,0.303,0.262c0.127,0.019,0.238,0.03,0.336,0.03
	c0.037,0,0.076-0.006,0.115-0.016s0.078-0.015,0.117-0.015c0.076,0,0.15,0.011,0.217,0.03c0.068,0.018,0.102,0.076,0.102,0.173
	c0,0.214-0.111,0.401-0.334,0.567c-0.223,0.164-0.488,0.304-0.799,0.421c-0.309,0.116-0.629,0.202-0.957,0.261
	c-0.33,0.059-0.6,0.087-0.813,0.087c-0.35,0-0.709-0.034-1.074-0.103c-0.369-0.067-0.717-0.145-1.047-0.231
	c-0.328-0.087-0.625-0.165-0.885-0.231c-0.262-0.068-0.449-0.103-0.566-0.103c-0.271,0-0.512,0.067-0.727,0.203
	c-0.213,0.136-0.318,0.368-0.318,0.696c0,0.215,0.086,0.358,0.26,0.437c0.174,0.077,0.301,0.146,0.379,0.203
	c0.174,0.06,0.26,0.146,0.26,0.262c0,0.115-0.115,0.188-0.348,0.218c-0.232,0.028-0.396,0.043-0.494,0.043
	c-0.521,0-1.025-0.092-1.51-0.275c-0.483-0.184-0.967-0.387-1.451-0.61c-0.485-0.223-0.978-0.426-1.481-0.61
	c-0.504-0.184-1.035-0.274-1.598-0.274c-0.251,0-0.453,0.037-0.609,0.116c-0.155,0.076-0.232,0.212-0.232,0.406
	c0,0.174,0.039,0.314,0.117,0.42c0.076,0.106,0.158,0.199,0.246,0.277c0.088,0.076,0.17,0.139,0.246,0.188
	c0.078,0.048,0.117,0.102,0.117,0.159c0,0.039-0.024,0.082-0.072,0.131c-0.049,0.048-0.092,0.072-0.131,0.072
	c-0.213,0-0.547-0.054-1.002-0.16s-0.992-0.41-1.611-0.914c-0.368-0.29-0.736-0.648-1.104-1.074s-0.716-0.848-1.045-1.264
	c-0.33-0.416-0.615-0.797-0.857-1.146c-0.242-0.348-0.411-0.59-0.508-0.727c-0.058-0.096-0.184-0.217-0.377-0.362
	c-0.194-0.146-0.397-0.218-0.61-0.218c-0.214,0-0.417,0.092-0.609,0.277c-0.194,0.183-0.29,0.392-0.29,0.623
	c0,0.135,0.023,0.262,0.072,0.377c0.048,0.117,0.092,0.213,0.131,0.291c0,0.039,0.004,0.068,0.014,0.088
	c0.01,0.018,0.016,0.037,0.016,0.058c0,0.096-0.035,0.169-0.102,0.217c-0.068,0.049-0.142,0.073-0.219,0.073
	c-0.078,0-0.126-0.01-0.145-0.029c-0.426-0.29-0.784-0.639-1.074-1.046c-0.291-0.405-0.528-0.851-0.711-1.335
	c-0.186-0.484-0.316-0.997-0.393-1.539c-0.078-0.542-0.117-1.084-0.117-1.626c0-0.503,0.01-0.981,0.029-1.437
	s0.029-0.848,0.029-1.176c0-0.156-0.014-0.339-0.044-0.553c-0.028-0.213-0.077-0.416-0.144-0.609
	c-0.068-0.192-0.17-0.358-0.306-0.494c-0.136-0.135-0.319-0.202-0.552-0.202c-0.329,0-0.566,0.126-0.712,0.377
	c-0.146,0.252-0.257,0.483-0.334,0.696c0,0.039-0.019,0.102-0.058,0.188c-0.039,0.088-0.098,0.131-0.175,0.131
	c-0.058,0-0.116-0.032-0.174-0.101s-0.087-0.131-0.087-0.189c-0.039-0.117-0.092-0.305-0.16-0.566
	c-0.066-0.262-0.102-0.586-0.102-0.973c0-0.289,0.029-0.609,0.088-0.957c0.058-0.35,0.174-0.717,0.348-1.104
	c0.176-0.427,0.411-0.803,0.712-1.133c0.3-0.329,0.64-0.673,1.017-1.031s0.764-0.764,1.16-1.219c0.397-0.455,0.789-1.011,1.176-1.67
	c0.06-0.116,0.088-0.241,0.088-0.378c0-0.173-0.067-0.337-0.203-0.493c-0.135-0.135-0.262-0.203-0.377-0.203
	c-0.116,0-0.262,0.058-0.436,0.174c-0.175,0.116-0.33,0.194-0.465,0.232c-0.059,0-0.103-0.029-0.131-0.087
	c-0.029-0.058-0.044-0.106-0.044-0.145c0-0.077,0.054-0.193,0.16-0.348c0.106-0.155,0.246-0.33,0.421-0.523s0.373-0.382,0.596-0.566
	s0.45-0.343,0.682-0.479c0.252-0.155,0.552-0.285,0.9-0.393c0.348-0.106,0.688-0.207,1.016-0.304c0.367-0.097,0.765-0.193,1.19-0.29
	c0.484-0.059,0.813-0.151,0.988-0.277c0.174-0.125,0.261-0.362,0.261-0.711c0-0.154-0.087-0.285-0.261-0.392
	c-0.175-0.106-0.368-0.16-0.581-0.16c-0.155,0-0.232-0.038-0.232-0.115c0-0.058,0.029-0.117,0.088-0.174
	c0.058-0.059,0.16-0.122,0.304-0.189c0.146-0.068,0.353-0.102,0.625-0.102h0.217c0.067,0,0.149,0.01,0.247,0.029
	c0.214,0,0.479,0.029,0.799,0.087c0.32,0.058,0.635,0.126,0.943,0.203c0.349,0.078,0.707,0.165,1.074,0.261
	c0.465,0,0.832-0.115,1.104-0.348c0.271-0.232,0.407-0.483,0.407-0.755c0-0.193-0.077-0.387-0.233-0.58
	c-0.097-0.213-0.266-0.387-0.507-0.523c-0.242-0.135-0.494-0.237-0.755-0.305c-0.262-0.068-0.514-0.111-0.755-0.131
	c-0.242-0.019-0.412-0.029-0.509-0.029c-0.135,0-0.258-0.009-0.363-0.029c-0.105-0.019-0.159-0.058-0.159-0.116
	c0-0.077,0.126-0.164,0.377-0.262c0.271-0.154,0.755-0.231,1.452-0.231c0.388,0,0.818,0.039,1.292,0.116
	c0.474,0.077,0.963,0.213,1.466,0.406c0.852,0.348,1.66,0.862,2.424,1.539c0.766,0.678,1.458,1.51,2.077,2.497
	c0.35,0.523,0.678,0.963,0.988,1.321c0.309,0.358,0.584,0.654,0.826,0.886c0.244,0.232,0.451,0.417,0.625,0.551
	c0.174,0.136,0.301,0.252,0.379,0.349c0.154,0.29,0.246,0.673,0.275,1.147c0.027,0.475,0.07,0.885,0.131,1.234
	c0.039,0.174,0.131,0.426,0.275,0.755s0.289,0.682,0.436,1.059c0.145,0.378,0.275,0.755,0.391,1.133
	c0.117,0.378,0.174,0.712,0.174,1.002c-0.213,0.329-0.352,0.6-0.42,0.813c-0.066,0.213-0.121,0.391-0.158,0.536
	c-0.039,0.146-0.102,0.267-0.189,0.363s-0.258,0.185-0.508,0.261c-0.213,0.059-0.389,0.087-0.523,0.087
	c-0.057,0-0.17-0.019-0.334-0.057c-0.164-0.039-0.246-0.106-0.246-0.204c0-0.039,0.023-0.105,0.072-0.203
	c0.047-0.097,0.072-0.223,0.072-0.378c0-0.096-0.02-0.217-0.059-0.362s-0.105-0.306-0.203-0.479c-0.521-0.89-1.07-1.529-1.641-1.916
	c-0.57-0.387-1.021-0.581-1.35-0.581c-0.098,0.039-0.229,0.145-0.393,0.32c-0.164,0.174-0.33,0.382-0.494,0.623
	c-0.165,0.243-0.309,0.505-0.435,0.786c-0.127,0.279-0.199,0.546-0.219,0.797c0,0.039-0.006,0.083-0.015,0.13
	c-0.01,0.05-0.015,0.093-0.015,0.132c0,0.329,0.064,0.6,0.189,0.813c0.125,0.213,0.17,0.318,0.131,0.318
	c0,0.039-0.039,0.059-0.115,0.059c-0.137,0-0.331-0.059-0.581-0.175c-0.253-0.116-0.484-0.31-0.697-0.581
	c-0.097-0.193-0.146-0.445-0.146-0.755c0-0.29,0.033-0.575,0.102-0.856c0.068-0.28,0.102-0.547,0.102-0.799
	c0-0.116-0.02-0.251-0.058-0.407c-0.214-0.406-0.45-0.628-0.712-0.667s-0.499-0.087-0.711-0.145c-0.33-0.116-0.494-0.222-0.494-0.32
	c0-0.058,0.068-0.086,0.203-0.086c0.059-0.04,0.141-0.083,0.247-0.132c0.106-0.048,0.219-0.111,0.334-0.188
	c0.116-0.078,0.213-0.175,0.29-0.291c0.078-0.116,0.117-0.271,0.117-0.464c0-0.251-0.098-0.561-0.291-0.929
	c-0.155-0.271-0.387-0.484-0.697-0.639C22.005,18.076,21.666,18,21.298,18c-0.098,0-0.185,0.004-0.262,0.014
	c-0.078,0.01-0.164,0.025-0.262,0.044c-0.639,0.097-1.18,0.324-1.625,0.682c-0.445,0.359-0.809,0.784-1.09,1.278
	c-0.28,0.493-0.484,1.036-0.609,1.626c-0.126,0.59-0.188,1.166-0.188,1.727c0,1.394,0.221,2.653,0.668,3.775
	c0.443,1.123,1.082,2.076,1.916,2.859c0.832,0.785,1.824,1.386,2.975,1.801c1.153,0.417,2.445,0.625,3.877,0.625
	c1.625,0,3.068-0.325,4.326-0.973c1.258-0.648,2.318-1.516,3.18-2.6s1.51-2.332,1.945-3.746c0.436-1.412,0.652-2.893,0.652-4.442
	c0-1.006-0.105-2.071-0.318-3.194c-0.098-0.483-0.262-0.934-0.494-1.35c-0.232-0.417-0.492-0.779-0.783-1.089
	c-0.291-0.309-0.596-0.556-0.914-0.74c-0.32-0.184-0.615-0.276-0.887-0.276c-0.137,0.077-0.203,0.213-0.203,0.406
	c0,0.155,0.039,0.281,0.115,0.378c0.039,0.058,0.059,0.135,0.059,0.232c0,0.097-0.039,0.145-0.115,0.145
	c-0.098,0-0.186-0.038-0.262-0.116c-0.117-0.135-0.242-0.251-0.377-0.348c-0.137-0.097-0.291-0.179-0.467-0.247
	c-0.174-0.068-0.367-0.102-0.578-0.102c-0.117,0-0.248,0.025-0.395,0.073c-0.143,0.048-0.285,0.092-0.42,0.13
	c-0.156,0.058-0.318,0.116-0.494,0.175c0-0.484,0.117-0.93,0.35-1.336c0.232-0.406,0.537-0.755,0.914-1.045s0.805-0.518,1.277-0.683
	c0.475-0.164,0.963-0.246,1.467-0.246c0.059,0,0.088,0.039,0.088,0.116c0,0.116-0.078,0.174-0.232,0.174
	c-0.156,0-0.268,0.058-0.334,0.174c-0.068,0.116-0.102,0.252-0.102,0.407c0.076-0.019,0.168-0.039,0.275-0.059
	c0.105-0.019,0.238-0.033,0.393-0.043c0.154-0.01,0.279-0.014,0.377-0.014c0.174,0,0.338,0.038,0.492,0.116
	c0.156,0.077,0.307,0.159,0.451,0.246c0.145,0.088,0.295,0.165,0.449,0.233c0.156,0.068,0.32,0.101,0.494,0.101
	c0.059,0,0.088-0.01,0.088-0.029c0-0.038-0.049-0.121-0.146-0.246c-0.096-0.126-0.145-0.238-0.145-0.335
	c0-0.038,0.029-0.058,0.088-0.058c0.096,0,0.203,0.034,0.318,0.102c0.117,0.068,0.271,0.208,0.465,0.421
	c0.193,0.214,0.396,0.484,0.609,0.813c0.252,0.368,0.41,0.664,0.479,0.886c0.068,0.223,0.133,0.547,0.189,0.973l0.029,0.232
	c0.02,0.097,0.082,0.232,0.189,0.406c0.105,0.175,0.219,0.261,0.334,0.261c0.096,0,0.174-0.106,0.23-0.318
	c0-0.252,0.021-0.379,0.059-0.379c0.154,0,0.32,0.166,0.494,0.494c0.174,0.33,0.311,0.746,0.406,1.249
	c0.02,0.29,0.029,0.528,0.029,0.711c0,0.184-0.01,0.412-0.029,0.682c-0.02,0.272-0.029,0.553-0.029,0.842
	c0,0.059,0.006,0.146,0.016,0.262s0.029,0.228,0.059,0.333c0.027,0.107,0.072,0.199,0.131,0.277
	c0.059,0.077,0.135,0.116,0.232,0.116c0.115,0,0.188-0.063,0.215-0.189c0.031-0.125,0.084-0.188,0.162-0.188
	c0.096,0,0.158,0.077,0.189,0.232c0.027,0.155,0.043,0.31,0.043,0.464c0,0.368-0.055,0.91-0.16,1.626
	c-0.107,0.717-0.285,1.52-0.537,2.41c-0.039,0.154-0.059,0.32-0.059,0.494c0,0.193,0.029,0.382,0.088,0.566
	C40.725,26.183,40.84,26.294,41.014,26.333"/>
</svg>
