<?xml version="1.0" encoding="utf-8"?>
<!-- Generator: Adobe Illustrator 16.0.0, SVG Export Plug-In . SVG Version: 6.00 Build 0)  -->
<!DOCTYPE svg PUBLIC "-//W3C//DTD SVG 1.1//EN" "http://www.w3.org/Graphics/SVG/1.1/DTD/svg11.dtd">
<svg version="1.1" id="Layer_1" xmlns="http://www.w3.org/2000/svg" xmlns:xlink="http://www.w3.org/1999/xlink" x="0px" y="0px"
	 width="51px" height="24.996px" viewBox="0 0 51 24.996" enable-background="new 0 0 51 24.996" xml:space="preserve">
<path d="M4.326,12.555c0,3.564,0.99,6.574,2.349,7.557v3.525H6.123l-2.082-2.038h-86.808l-2.081,2.038h-0.551v-3.525
	c1.359-0.982,2.348-3.992,2.348-7.557c0-3.565-0.989-6.575-2.348-7.558V1.516V1.472V0.157l0.551,1.315l2.081,2.038H4.041
	l2.082-2.038l0.552-1.315v1.315v0.044v3.481C5.316,5.979,4.326,8.99,4.326,12.555 M6.037,12.569
	c0.045,0.002,0.091,0.004,0.135,0.008h44.123l-2.846,1.757c0,0-1.14-0.879-3.273-0.879H8.111c0.455,0.55,0.75,1.368,1.1,2.5
	c0.742,2.408,1.52-0.651,2.143-0.651c0.622,0,1.415,0.651,1.415,0.651l-3.735,3.402c-0.432-3.345-1.215-5.037-1.92-5.903H6.658
	c0,0-0.193-0.286-0.606-0.533c0.079,2.355,0.897,4.219,1.905,4.219v2.038v4.458l-0.428-1.061v-3.484
	c-1.32-0.491-2.334-3.201-2.346-6.48c-0.139-0.021-0.286-0.035-0.447-0.035h0.446c0-0.008-0.001-0.015-0.001-0.022H4.736
	c0.16,0,0.309-0.014,0.446-0.036C5.191,9.231,6.207,6.51,7.529,6.018V2.577l0.428-1.061v4.415v2.038v0.044h-0.18
	C6.851,8.222,6.121,9.991,6.05,12.21c0.414-0.246,0.608-0.534,0.608-0.534h0.438c0.709-0.858,1.503-2.551,1.938-5.923l3.735,3.401
	c0,0-0.793,0.651-1.415,0.651c-0.623,0-1.4-3.059-2.143-0.651c-0.355,1.149-0.652,1.972-1.117,2.522h36.082
	c2.134,0,3.273-0.879,3.273-0.879l2.846,1.758H6.035C6.035,12.56,6.037,12.564,6.037,12.569 M6.123,23.681l0.552-0.044v1.359
	L6.123,23.681z M-83.907,12.519c0.138,0.022,0.286,0.036,0.446,0.036h-0.445c0,0.007-0.001,0.014-0.001,0.022h0.446
	c-0.161,0-0.308,0.014-0.447,0.035c-0.012,3.279-1.026,5.989-2.345,6.48v3.484l-0.428,1.061v-4.458v-2.038
	c1.007,0,1.826-1.863,1.906-4.219c-0.413,0.247-0.607,0.533-0.607,0.533h-0.456c-0.704,0.866-1.488,2.558-1.919,5.903l-3.736-3.402
	c0,0,0.793-0.651,1.415-0.651c0.623,0,1.401,3.06,2.144,0.651c0.349-1.133,0.644-1.95,1.099-2.5H-122.9
	c-2.135,0-3.273,0.879-3.273,0.879l-2.846-1.757h44.123c0.044-0.004,0.09-0.006,0.136-0.008c0-0.005,0-0.009,0-0.014h-44.259
	l2.846-1.758c0,0,1.138,0.879,3.273,0.879h36.083c-0.466-0.55-0.763-1.373-1.117-2.522c-0.743-2.408-1.521,0.651-2.144,0.651
	c-0.622,0-1.415-0.651-1.415-0.651l3.736-3.401c0.434,3.372,1.228,5.065,1.938,5.923h0.437c0,0,0.195,0.288,0.609,0.534
	c-0.072-2.219-0.803-3.988-1.728-4.197h-0.18V7.969V5.931V1.516l0.428,1.061v3.441C-84.931,6.51-83.916,9.231-83.907,12.519
	 M-84.848,23.681l-0.551-0.044v1.359L-84.848,23.681z"/>
<rect id="_x3C_Slice_x3E_" x="-129" y="0.157" fill="none" width="179.295" height="24.843"/>
</svg>
