<?xml version="1.0" encoding="utf-8"?>
<!-- Generator: Adobe Illustrator 16.0.0, SVG Export Plug-In . SVG Version: 6.00 Build 0)  -->
<!DOCTYPE svg PUBLIC "-//W3C//DTD SVG 1.1//EN" "http://www.w3.org/Graphics/SVG/1.1/DTD/svg11.dtd">
<svg version="1.1" id="Layer_1" xmlns="http://www.w3.org/2000/svg" xmlns:xlink="http://www.w3.org/1999/xlink" x="0px" y="0px"
	 width="4em" height="7.5em" viewBox="0 0 8 15" enable-background="new 0 0 8 15" xml:space="preserve">
<path fill="#010101" d="M6.471,1.468v1.999C4.652,3.75,3.256,5.322,3.256,7.219c0,1.896,1.396,3.468,3.215,3.751v1.975l0.586,0.609
	V11.02V9.851V9.826H6.811C5.477,9.699,4.424,8.585,4.424,7.219c0-1.451,1.182-2.632,2.633-2.632V3.417V0.858L6.471,1.468z
	 M2.083,7.219c0-2.046,1.356-3.773,3.218-4.337V0.858H4.545l-2.851,1.17h-117.412l-2.851-1.17h-0.755v2.023
	c1.861,0.564,3.217,2.291,3.217,4.337c0,2.046-1.356,3.773-3.217,4.337v1.998v0.024v0.756l0.755-0.756l2.851-1.17H1.694l2.851,1.17
	l0.756,0.756v-0.756v-0.024v-1.998C3.439,10.992,2.083,9.265,2.083,7.219 M-119.324,0.079v0.78l0.755-0.025L-119.324,0.079z
	 M-117.279,7.219c0-1.896-1.397-3.468-3.215-3.752V1.468l-0.586-0.609v2.559v1.169c1.451,0,2.632,1.181,2.632,2.632
	c0,1.367-1.052,2.48-2.387,2.607h-0.245v0.024v1.169v2.534l0.586-0.609V10.97C-118.676,10.687-117.279,9.114-117.279,7.219
	 M5.301,0.079v0.78L4.545,0.833L5.301,0.079z"/>
<rect id="_x3C_Slice_x3E_" x="-122" fill="none" width="130" height="14.334"/>
</svg>
