<?xml version="1.0" encoding="utf-8"?>
<!-- Generator: Adobe Illustrator 16.0.0, SVG Export Plug-In . SVG Version: 6.00 Build 0)  -->
<!DOCTYPE svg PUBLIC "-//W3C//DTD SVG 1.1//EN" "http://www.w3.org/Graphics/SVG/1.1/DTD/svg11.dtd">
<svg version="1.1" id="Layer_1" xmlns="http://www.w3.org/2000/svg" xmlns:xlink="http://www.w3.org/1999/xlink" x="0px" y="0px"
	 width="94.319px" height="14.255px" viewBox="0 0 94.319 14.255" enable-background="new 0 0 94.319 14.255" xml:space="preserve">
<path d="M93.733,1.389v1.999c-1.817,0.284-3.215,1.855-3.215,3.752c0,1.896,1.397,3.468,3.215,3.751v1.975l0.586,0.609V10.94V9.772
	V9.747h-0.245c-1.335-0.126-2.386-1.24-2.386-2.607c0-1.451,1.18-2.632,2.631-2.632V3.339V0.78L93.733,1.389z M89.347,7.14
	c0-2.046,1.355-3.773,3.217-4.337V0.78h-0.755l-2.851,1.17H5.362L2.512,0.78H1.757v2.023c1.86,0.564,3.216,2.291,3.216,4.337
	c0,2.046-1.355,3.773-3.216,4.337v1.998V13.5v0.755L2.512,13.5l2.851-1.17h83.596l2.851,1.17l0.755,0.755V13.5v-0.024v-1.998
	C90.702,10.913,89.347,9.187,89.347,7.14 M1.757,0v0.78l0.755-0.025L1.757,0z M3.802,7.14c0-1.897-1.398-3.468-3.216-3.752V1.389
	L0,0.78v2.559v1.169c1.45,0,2.632,1.181,2.632,2.632c0,1.367-1.051,2.481-2.387,2.607H0v0.025v1.168v2.535l0.586-0.609v-1.975
	C2.403,10.608,3.802,9.036,3.802,7.14 M92.563,0v0.78l-0.755-0.025L92.563,0z"/>
</svg>
