<?xml version="1.0" encoding="utf-8"?>
<!-- Generator: Adobe Illustrator 16.0.0, SVG Export Plug-In . SVG Version: 6.00 Build 0)  -->
<!DOCTYPE svg PUBLIC "-//W3C//DTD SVG 1.1//EN" "http://www.w3.org/Graphics/SVG/1.1/DTD/svg11.dtd">
<svg version="1.1" id="Layer_1" xmlns="http://www.w3.org/2000/svg" xmlns:xlink="http://www.w3.org/1999/xlink" x="0px" y="0px"
	 width="1em" height="7.5em" viewBox="0 0 2 15" enable-background="new 0 0 2 15" xml:space="preserve">
<path fill="#010101" d="M25.471,1.468v1.999c-1.818,0.284-3.215,1.856-3.215,3.752c0,1.896,1.396,3.468,3.215,3.751v1.975
	l0.586,0.609V11.02V9.851V9.826h-0.246c-1.334-0.127-2.387-1.241-2.387-2.607c0-1.451,1.182-2.632,2.633-2.632V3.417V0.858
	L25.471,1.468z M21.083,7.219c0-2.046,1.356-3.773,3.218-4.337V0.858h-0.756l-2.851,1.17H-96.718l-2.851-1.17h-0.755v2.023
	c1.861,0.564,3.217,2.291,3.217,4.337c0,2.046-1.356,3.773-3.217,4.337v1.998v0.024v0.756l0.755-0.756l2.851-1.17H20.694l2.851,1.17
	l0.756,0.756v-0.756v-0.024v-1.998C22.439,10.992,21.083,9.265,21.083,7.219 M-100.324,0.079v0.78l0.755-0.025L-100.324,0.079z
	 M-98.279,7.219c0-1.896-1.397-3.468-3.215-3.752V1.468l-0.586-0.609v2.559v1.169c1.451,0,2.632,1.181,2.632,2.632
	c0,1.367-1.052,2.48-2.387,2.607h-0.245v0.024v1.169v2.534l0.586-0.609V10.97C-99.676,10.687-98.279,9.114-98.279,7.219
	 M24.301,0.079v0.78l-0.756-0.025L24.301,0.079z"/>
<rect id="_x3C_Slice_x3E_" x="-103" fill="none" width="130" height="14.334"/>
</svg>
