<?xml version="1.0" encoding="utf-8"?>
<!-- Generator: Adobe Illustrator 16.0.0, SVG Export Plug-In . SVG Version: 6.00 Build 0)  -->
<!DOCTYPE svg PUBLIC "-//W3C//DTD SVG 1.1//EN" "http://www.w3.org/Graphics/SVG/1.1/DTD/svg11.dtd">
<svg version="1.1" id="Layer_1" xmlns="http://www.w3.org/2000/svg" xmlns:xlink="http://www.w3.org/1999/xlink" x="0px" y="0px"
	 width="168.114px" height="24.839px" viewBox="0 0 168.114 24.839" enable-background="new 0 0 168.114 24.839"
	 xml:space="preserve">
<path d="M125.078,12.398c0,3.564,0.927,6.574,2.198,7.557v3.525h-0.516l-1.948-2.038H43.541l-1.948,2.038h-0.516v-3.525
	c1.272-0.982,2.198-3.992,2.198-7.557c0-3.565-0.926-6.575-2.198-7.558V1.359V1.315V0l0.516,1.315l1.948,2.038h81.271l1.948-2.038
	L127.276,0v1.315v0.044V4.84C126.005,5.823,125.078,8.833,125.078,12.398 M126.679,12.412c0.043,0.002,0.086,0.004,0.127,0.008
	h41.309l-2.664,1.757c0,0-1.067-0.879-3.065-0.879h-33.763c0.426,0.55,0.701,1.368,1.029,2.5c0.694,2.408,1.424-0.651,2.006-0.651
	c0.583,0,1.325,0.651,1.325,0.651l-3.497,3.402c-0.404-3.345-1.138-5.037-1.797-5.903h-0.428c0,0-0.181-0.286-0.567-0.533
	c0.075,2.355,0.841,4.219,1.784,4.219v2.038v4.458l-0.4-1.061v-3.484c-1.236-0.491-2.185-3.201-2.196-6.48
	c-0.13-0.021-0.268-0.035-0.418-0.035h0.417c0-0.008-0.001-0.015-0.001-0.022h-0.416c0.15,0,0.288-0.014,0.417-0.036
	c0.007-3.288,0.958-6.009,2.197-6.501V2.42l0.4-1.061v4.415v2.038v0.044h-0.168c-0.867,0.209-1.552,1.978-1.617,4.197
	c0.387-0.246,0.568-0.534,0.568-0.534h0.41c0.664-0.858,1.407-2.551,1.814-5.923l3.497,3.401c0,0-0.742,0.651-1.325,0.651
	c-0.582,0-1.312-3.059-2.006-0.651c-0.332,1.149-0.61,1.972-1.046,2.522h33.779c1.998,0,3.065-0.879,3.065-0.879l2.664,1.758
	h-41.436C126.679,12.403,126.679,12.407,126.679,12.412 M126.761,23.524l0.516-0.044v1.359L126.761,23.524z M42.474,12.362
	c0.129,0.022,0.268,0.036,0.418,0.036h-0.417c0,0.007-0.001,0.014-0.001,0.022h0.418c-0.151,0-0.289,0.014-0.419,0.035
	c-0.011,3.279-0.961,5.989-2.195,6.48v3.484l-0.401,1.061v-4.458v-2.038c0.942,0,1.709-1.863,1.784-4.219
	c-0.386,0.247-0.568,0.533-0.568,0.533h-0.427c-0.659,0.866-1.393,2.558-1.797,5.903l-3.497-3.402c0,0,0.742-0.651,1.325-0.651
	s1.311,3.06,2.007,0.651c0.327-1.133,0.603-1.95,1.028-2.5H5.969c-1.999,0-3.064,0.879-3.064,0.879L0.24,12.42h41.309
	c0.04-0.004,0.084-0.006,0.126-0.008c0-0.005,0.001-0.009,0.001-0.014H0.24l2.665-1.758c0,0,1.065,0.879,3.064,0.879h33.78
	c-0.436-0.55-0.714-1.373-1.045-2.522c-0.696-2.408-1.424,0.651-2.007,0.651s-1.325-0.651-1.325-0.651l3.497-3.401
	c0.407,3.372,1.151,5.065,1.815,5.923h0.409c0,0,0.182,0.288,0.57,0.534c-0.067-2.219-0.751-3.988-1.618-4.197h-0.168V7.812V5.774
	V1.359l0.401,1.061v3.441C41.515,6.353,42.467,9.074,42.474,12.362 M41.593,23.524l-0.516-0.044v1.359L41.593,23.524z"/>
</svg>
