<?xml version="1.0" encoding="utf-8"?>
<!-- Generator: Adobe Illustrator 16.0.0, SVG Export Plug-In . SVG Version: 6.00 Build 0)  -->
<!DOCTYPE svg PUBLIC "-//W3C//DTD SVG 1.1//EN" "http://www.w3.org/Graphics/SVG/1.1/DTD/svg11.dtd">
<svg version="1.1" id="Layer_1" xmlns="http://www.w3.org/2000/svg" xmlns:xlink="http://www.w3.org/1999/xlink" x="0px" y="0px"
	 width="540px" height="25.801px" viewBox="0 0 540 25.801" enable-background="new 0 0 540 25.801" xml:space="preserve">
<path d="M401.567,13.358c0,3.565,2.979,6.574,7.071,7.557v3.525h-1.66l-6.268-2.038H139.288l-6.268,2.038h-1.66v-3.525
	c4.093-0.982,7.071-3.991,7.071-7.557s-2.978-6.574-7.071-7.558V2.319V2.275V0.96l1.66,1.315l6.268,2.038H400.71l6.268-2.038
	l1.66-1.315v1.315v0.044v3.481C404.546,6.784,401.567,9.793,401.567,13.358 M406.716,13.372c0.137,0.002,0.275,0.004,0.407,0.009
	H540l-8.569,1.757c0,0-3.431-0.879-9.858-0.879H412.965c1.369,0.55,2.257,1.366,3.31,2.5c2.237,2.408,4.58-0.65,6.454-0.65
	c1.875,0,4.261,0.65,4.261,0.65l-11.249,3.401c-1.298-3.344-3.658-5.037-5.78-5.901h-1.372c0,0-0.584-0.286-1.826-0.532
	c0.239,2.354,2.704,4.218,5.737,4.218v2.038v4.458l-1.288-1.061v-3.484c-3.974-0.49-7.025-3.201-7.063-6.479
	c-0.418-0.021-0.862-0.035-1.346-0.035h1.343c0-0.009-0.003-0.016-0.003-0.022h-1.34c0.482,0,0.927-0.014,1.344-0.036
	c0.021-3.288,3.082-6.009,7.064-6.501v-3.44l1.288-1.062v4.415v2.038v0.044h-0.54c-2.79,0.209-4.989,1.978-5.204,4.197
	c1.246-0.246,1.833-0.534,1.833-0.534h1.317c2.135-0.858,4.527-2.551,5.835-5.923l11.249,3.4c0,0-2.386,0.651-4.261,0.651
	c-1.874,0-4.217-3.059-6.454-0.651c-1.067,1.149-1.963,1.973-3.364,2.522h108.661c6.428,0,9.858-0.879,9.858-0.879L540,13.358
	H406.713C406.713,13.363,406.716,13.367,406.716,13.372 M406.978,24.484l1.66-0.044v1.36L406.978,24.484z M135.854,13.322
	c0.416,0.022,0.861,0.036,1.343,0.036h-1.34c0,0.007-0.002,0.014-0.002,0.022h1.342c-0.483,0-0.928,0.014-1.346,0.035
	c-0.036,3.278-3.091,5.989-7.062,6.479v3.484l-1.288,1.061v-4.458v-2.038c3.031,0,5.498-1.864,5.739-4.218
	c-1.244,0.246-1.828,0.532-1.828,0.532h-1.372c-2.122,0.864-4.483,2.558-5.781,5.901l-11.249-3.401c0,0,2.387-0.65,4.261-0.65
	c1.875,0,4.218,3.059,6.455,0.65c1.053-1.134,1.94-1.95,3.309-2.5H18.428c-6.428,0-9.857,0.879-9.857,0.879L0,13.381h132.877
	c0.132-0.005,0.271-0.007,0.407-0.009c0-0.005,0.002-0.009,0.002-0.014H0l8.571-1.758c0,0,3.429,0.879,9.857,0.879h108.661
	c-1.402-0.55-2.296-1.373-3.363-2.522c-2.237-2.407-4.58,0.651-6.455,0.651c-1.874,0-4.261-0.651-4.261-0.651l11.249-3.4
	c1.308,3.372,3.7,5.064,5.836,5.923h1.317c0,0,0.586,0.288,1.833,0.534c-0.215-2.22-2.417-3.988-5.204-4.197h-0.54V8.772V6.734
	V2.319l1.288,1.062v3.44C132.769,7.313,135.831,10.034,135.854,13.322 M133.02,24.484l-1.66-0.044v1.36L133.02,24.484z"/>
</svg>
