<?xml version="1.0" encoding="utf-8"?>
<!-- Generator: Adobe Illustrator 16.0.0, SVG Export Plug-In . SVG Version: 6.00 Build 0)  -->
<!DOCTYPE svg PUBLIC "-//W3C//DTD SVG 1.1//EN" "http://www.w3.org/Graphics/SVG/1.1/DTD/svg11.dtd">
<svg version="1.1" id="Layer_1" xmlns="http://www.w3.org/2000/svg" xmlns:xlink="http://www.w3.org/1999/xlink" x="0px" y="0px"
	 width="70px" height="17px" viewBox="0 0 70 17" enable-background="new 0 0 70 17" xml:space="preserve">
<path fill="#010101" d="M197.78,8.544c0,2.215,1.468,4.085,3.483,4.695v2.19h-0.818l-3.087-1.267H68.603l-3.087,1.267h-0.818v-2.19
	c2.016-0.61,3.483-2.48,3.483-4.695s-1.467-4.085-3.483-4.696V1.685V1.658V0.84l0.818,0.818l3.087,1.266h128.756l3.087-1.266
	l0.818-0.818v0.818v0.026v2.163C199.248,4.459,197.78,6.329,197.78,8.544 M200.317,8.552c0.065,0.002,0.135,0.003,0.2,0.005h65.443
	l-4.221,1.092c0,0-1.689-0.546-4.855-0.546h-53.49c0.675,0.342,1.111,0.85,1.63,1.554c1.103,1.496,2.256-0.404,3.179-0.404
	c0.924,0,2.1,0.404,2.1,0.404l-5.541,2.113c-0.639-2.077-1.803-3.129-2.848-3.667h-0.675c0,0-0.288-0.178-0.899-0.331
	c0.117,1.463,1.332,2.621,2.826,2.621v1.268v2.77l-0.636-0.659v-2.165c-1.957-0.305-3.46-1.988-3.478-4.025
	c-0.207-0.015-0.426-0.023-0.664-0.023h0.662c0-0.004-0.002-0.009-0.002-0.013h-0.66c0.238,0,0.457-0.009,0.662-0.022
	c0.012-2.043,1.519-3.733,3.479-4.04V2.344l0.636-0.659v2.743v1.266v0.028h-0.267c-1.374,0.13-2.457,1.229-2.563,2.607
	c0.614-0.153,0.903-0.331,0.903-0.331h0.647c1.053-0.533,2.23-1.585,2.875-3.682l5.541,2.114c0,0-1.176,0.404-2.1,0.404
	c-0.923,0-2.076-1.901-3.179-0.404c-0.526,0.713-0.966,1.225-1.656,1.567h53.517c3.166,0,4.855-0.546,4.855-0.546l4.221,1.092
	h-65.646C200.315,8.547,200.317,8.549,200.317,8.552 M200.445,15.457l0.818-0.027v0.844L200.445,15.457z M66.912,8.521
	c0.205,0.014,0.424,0.022,0.661,0.022h-0.66c0,0.004-0.001,0.009-0.001,0.013h0.661c-0.238,0-0.457,0.009-0.663,0.023
	c-0.018,2.037-1.522,3.721-3.478,4.025v2.165l-0.634,0.659v-2.77v-1.268c1.492,0,2.708-1.158,2.826-2.621
	c-0.613,0.153-0.9,0.331-0.9,0.331h-0.676c-1.045,0.538-2.208,1.59-2.847,3.667l-5.54-2.113c0,0,1.175-0.404,2.098-0.404
	c0.924,0,2.077,1.9,3.179,0.404c0.519-0.704,0.956-1.212,1.63-1.554H9.076c-3.166,0-4.855,0.546-4.855,0.546L0,8.557h65.444
	c0.065-0.002,0.134-0.003,0.201-0.005c0-0.003,0.001-0.005,0.001-0.008H0l4.221-1.092c0,0,1.689,0.546,4.855,0.546h53.518
	c-0.691-0.343-1.131-0.854-1.657-1.567c-1.102-1.497-2.255,0.404-3.179,0.404c-0.923,0-2.098-0.404-2.098-0.404l5.54-2.114
	c0.644,2.097,1.822,3.148,2.874,3.682h0.649c0,0,0.289,0.178,0.903,0.331c-0.106-1.378-1.191-2.478-2.563-2.607h-0.266V5.693V4.428
	V1.685l0.634,0.659v2.138C65.392,4.788,66.9,6.479,66.912,8.521 M65.516,15.457l-0.818-0.027v0.844L65.516,15.457z"/>
<rect id="_x3C_Slice_x3E_" x="0" y="0.84" fill="none" width="266" height="15.434"/>
</svg>
