<?xml version="1.0" encoding="utf-8"?>
<!-- Generator: Adobe Illustrator 16.0.0, SVG Export Plug-In . SVG Version: 6.00 Build 0)  -->
<!DOCTYPE svg PUBLIC "-//W3C//DTD SVG 1.1//EN" "http://www.w3.org/Graphics/SVG/1.1/DTD/svg11.dtd">
<svg version="1.1" id="Layer_1" xmlns="http://www.w3.org/2000/svg" xmlns:xlink="http://www.w3.org/1999/xlink" x="0px" y="0px"
	 width="85px" height="17px" viewBox="0 0 85 17" enable-background="new 0 0 85 17" xml:space="preserve">
<path fill="#DCDDDE" d="M80.169,8.734c0-2.445,1.825-4.509,4.331-5.184V1.132h-1.017l-3.84,1.398H5.648L1.809,1.132H0.793V3.55
	c2.506,0.675,4.331,2.739,4.331,5.184c0,2.446-1.825,4.51-4.331,5.185v2.388v0.03v0.902l1.016-0.902l3.839-1.399h73.996l3.84,1.399
	l1.017,0.902v-0.902v-0.03v-2.388C81.994,13.244,80.169,11.18,80.169,8.734 M0.793,0.2v0.932l1.016-0.029L0.793,0.2z M84.5,0.2
	v0.932l-1.017-0.029L84.5,0.2z"/>
</svg>
